<svg version="1.1" viewBox="0 0 300 300" xmlns="http://www.w3.org/2000/svg"
   xmlns:svg="http://www.w3.org/2000/svg">
   <g
      transform="translate(-80.180535,-59.065604)">
      <path
         d="m 0,0 c -2.205,-22.255 -7.737,-41.535 -12.931,-55.557 -44.26,10.115 -77.321,49.582 -77.321,96.897 0,37.47 20.735,70.055 51.333,87.029 13.726,-18.29 30.328,-45.561 36.825,-76.986 -24.015,-5.044 -48.13,-3.865 -55.097,-3.362 0.387,-4.67 0.681,-9.56 0.804,-14.622 C -56.072,20.577 -57.009,9.102 -58.245,-0.117 -51.113,-0.995 -26.303,-3.473 0,0 m -44.792,12.709 c 0.517,5.522 0.84,11.384 0.828,17.516 -0.006,1.487 -0.099,2.728 -0.132,4.152 16.578,-0.655 36.018,0.901 56.075,7.336 -4.882,42.823 -28.181,80.347 -45.968,103.512 -41.122,-16.783 -70.128,-57.119 -70.128,-104.267 0,-57.776 43.523,-105.329 99.56,-111.82 7.76,19.654 17.282,50.887 17.761,87.046 -21.299,-5.436 -41.562,-5.404 -57.996,-3.475"
         style="fill:#91d44f;fill-opacity:1;fill-rule:nonzero;stroke:none"
         transform="matrix(1.3333333,0,0,-1.3333333,219.0032,263.85093)"
      />
      <path
         d="m 0,0 c 4.947,19.057 9.305,43.022 9.895,69.157 18.222,9.433 33.214,20.536 42.278,27.9 -2.138,12.135 -3.23,17.574 -7.214,28.445 -2.19,5.981 -6.125,13.636 -9.062,18.848 -4.591,-3.898 -16.501,-11.475 -31.745,-20.618 -6.944,26.544 -19.564,51.301 -31.658,70.813 C 26.644,193.59 70.266,149.462 70.266,95.091 70.266,50.317 40.684,12.498 0,0 m -30.058,207.34 c -6.812,0 -13.447,-0.705 -19.924,-1.865 16.263,-23.26 38.742,-61.466 44.4,-101.524 15.318,7.264 26.617,13.774 37.055,21.855 0,0 2.551,-5.066 4.064,-10.088 1.673,-5.563 3.227,-12.862 3.227,-12.862 C 27.465,93.517 13.697,84.98 -3.752,77.384 -3.494,38.114 -12.904,3.033 -19.831,-17.412 37.577,-12.24 82.58,35.955 82.58,94.709 82.58,156.908 32.151,207.34 -30.058,207.34"
         style="fill:#91d44f;fill-opacity:1;fill-rule:nonzero;stroke:none"
         transform="matrix(1.3333333,0,0,-1.3333333,270.4368,335.51893)"
      />
   </g>
</svg>